<svg width="18" height="18" viewBox="0 0 18 18" fill="none" xmlns="http://www.w3.org/2000/svg">
<path fill-rule="evenodd" clip-rule="evenodd" d="M0.58716 0.642823C0.262872 0.642823 0 0.916601 0 1.25432C0 1.59204 0.262872 1.86582 0.58716 1.86582H2.85017L4.86854 11.7836C4.94839 12.1569 5.18333 12.4676 5.48016 12.4651H15.2662C15.5764 12.4696 15.8617 12.1767 15.8617 11.8536C15.8617 11.5305 15.5764 11.2376 15.2662 11.2421H5.95723L5.70645 10.0191H16.049C16.3119 10.0171 16.5603 9.80856 16.6178 9.54141L17.9879 3.42642C18.0642 3.07153 17.7683 2.68376 17.4191 2.68115H4.22021L3.90217 1.12693C3.8466 0.8554 3.59381 0.642537 3.32724 0.642823H0.58716ZM4.46484 3.90416H16.679L15.5842 8.79614H5.46178L4.46484 3.90416ZM7.63308 13.2804C6.55911 13.2804 5.67588 14.2003 5.67588 15.3188C5.67588 16.4373 6.55911 17.3571 7.63308 17.3571C8.70706 17.3571 9.59029 16.4373 9.59029 15.3188C9.59029 14.2003 8.70706 13.2804 7.63308 13.2804ZM13.1133 13.2804C12.0393 13.2804 11.1561 14.2003 11.1561 15.3188C11.1561 16.4373 12.0393 17.3571 13.1133 17.3571C14.1873 17.3571 15.0705 16.4373 15.0705 15.3188C15.0705 14.2003 14.1873 13.2804 13.1133 13.2804ZM7.63303 14.5034C8.07236 14.5034 8.41591 14.8612 8.41591 15.3188C8.41591 15.7763 8.07236 16.1341 7.63303 16.1341C7.19374 16.1341 6.85015 15.7763 6.85015 15.3188C6.85015 14.8612 7.19374 14.5034 7.63303 14.5034ZM13.1134 14.5034C13.5527 14.5034 13.8962 14.8612 13.8962 15.3188C13.8962 15.7763 13.5527 16.1341 13.1134 16.1341C12.6741 16.1341 12.3305 15.7763 12.3305 15.3188C12.3305 14.8612 12.6741 14.5034 13.1134 14.5034Z" fill="white"/>
</svg>
